<svg width="21" height="22" viewBox="0 0 21 22" fill="none" xmlns="http://www.w3.org/2000/svg">
<path d="M18.34 5.73816L12.49 1.63816C10.9 0.518163 8.45 0.578164 6.91 1.76816L1.82 5.74816C0.81 6.53816 0 8.16816 0 9.44816V16.4682C0 19.0582 2.1 21.1782 4.69 21.1782H15.64C18.23 21.1782 20.33 19.0782 20.33 16.4782V9.58817C20.33 8.21817 19.45 6.52816 18.33 5.74816L18.34 5.73816ZM10.94 17.1082C10.94 17.5282 10.59 17.8682 10.18 17.8682C9.77 17.8682 9.42 17.5182 9.42 17.1082V14.0582C9.42 13.6382 9.77 13.2982 10.18 13.2982C10.59 13.2982 10.94 13.6482 10.94 14.0582V17.1082Z" fill="#4F008C"/>
</svg>
