<svg width="21" height="22" viewBox="0 0 21 22" fill="none" xmlns="http://www.w3.org/2000/svg">
<path d="M13.36 0.828186H6.95999C3.10999 0.828186 -0.0100098 3.94819 -0.0100098 7.79819V14.1982C-0.0100098 18.0482 3.10999 21.1682 6.95999 21.1682H13.36C17.21 21.1682 20.33 18.0482 20.33 14.1982V7.79819C20.33 3.94819 17.21 0.828186 13.36 0.828186ZM13.62 15.4582C13.36 15.7282 13.03 15.7682 12.69 15.5982C12.61 15.5582 11.81 14.7782 10.89 13.8582C9.48999 12.4482 9.22999 12.1682 9.18999 12.0382C9.12999 11.8182 9.12999 7.04819 9.18999 6.83819C9.23999 6.65819 9.48999 6.38819 9.66999 6.33819C10.02 6.22819 10.43 6.37818 10.62 6.67818L10.72 6.82819V9.13819L10.74 11.4482L12.23 12.9382C13.05 13.7582 13.74 14.4782 13.78 14.5482C13.94 14.8782 13.89 15.2082 13.63 15.4582H13.62Z" fill="#4F008C"/>
</svg>
