<svg width="6" height="10" viewBox="0 0 6 10" fill="none" xmlns="http://www.w3.org/2000/svg">
<path d="M5.99584 0.625994C5.99567 0.791887 5.91553 0.950932 5.77306 1.06816L1.88852 4.26846C1.77094 4.36531 1.67767 4.48028 1.61404 4.60682C1.55041 4.73337 1.51765 4.869 1.51765 5.00597C1.51765 5.14294 1.55041 5.27857 1.61404 5.40511C1.67767 5.53166 1.77094 5.64663 1.88852 5.74347L5.768 8.9396C5.90635 9.05761 5.9829 9.21567 5.98117 9.37973C5.97944 9.54379 5.89956 9.70072 5.75875 9.81673C5.61793 9.93274 5.42744 9.99855 5.2283 9.99998C5.02917 10.0014 4.83732 9.93833 4.69408 9.82436L0.814601 6.63073C0.292966 6.20013 0 5.61662 0 5.00826C0 4.3999 0.292966 3.81639 0.814601 3.3858L4.69914 0.183409C4.80536 0.0958441 4.94072 0.0362053 5.08809 0.0120387C5.23546 -0.012128 5.38822 0.000263628 5.52705 0.0476456C5.66587 0.0950275 5.78451 0.17527 5.86796 0.27822C5.95141 0.38117 5.99591 0.502199 5.99584 0.625994Z" fill="#374957"/>
</svg>
