<svg width="20" height="20" viewBox="0 0 20 20" fill="none" xmlns="http://www.w3.org/2000/svg">
<path d="M18.7956 3.37615C18.5628 3.09662 18.2714 2.8718 17.942 2.71766C17.6126 2.56353 17.2534 2.48385 16.8898 2.48429H3.51036L3.4756 2.19363C3.40447 1.58947 3.11429 1.03242 2.66007 0.628094C2.20584 0.223771 1.61916 0.000283038 1.01123 0L0.827524 0C0.608051 0 0.397567 0.0872458 0.242376 0.242544C0.0871854 0.397843 0 0.608473 0 0.828098C0 1.04772 0.0871854 1.25835 0.242376 1.41365C0.397567 1.56895 0.608051 1.6562 0.827524 1.6562H1.01123C1.21392 1.65622 1.40955 1.73069 1.56102 1.86547C1.71248 2.00025 1.80925 2.18597 1.83297 2.38741L2.97164 12.0761C3.08985 13.0838 3.57364 14.0129 4.33119 14.6872C5.08873 15.3614 6.06729 15.7339 7.08113 15.7339H15.723C15.9424 15.7339 16.1529 15.6466 16.3081 15.4913C16.4633 15.336 16.5505 15.1254 16.5505 14.9058C16.5505 14.6861 16.4633 14.4755 16.3081 14.3202C16.1529 14.1649 15.9424 14.0777 15.723 14.0777H7.08113C6.56893 14.0762 6.06972 13.9163 5.65194 13.6198C5.23415 13.3233 4.91824 12.9047 4.74751 12.4215H14.6116C15.5817 12.4215 16.521 12.0805 17.2653 11.4579C18.0097 10.8354 18.5117 9.97087 18.6838 9.0155L19.3335 5.40996C19.3983 5.05223 19.3837 4.6846 19.2908 4.33314C19.1978 3.98167 19.0287 3.65496 18.7956 3.37615Z" fill="#4F008C"/>
<path d="M5.79274 19.8749C6.7068 19.8749 7.44779 19.1334 7.44779 18.2187C7.44779 17.304 6.7068 16.5625 5.79274 16.5625C4.87868 16.5625 4.1377 17.304 4.1377 18.2187C4.1377 19.1334 4.87868 19.8749 5.79274 19.8749Z" fill="#4F008C"/>
<path d="M14.0676 19.8749C14.9817 19.8749 15.7227 19.1334 15.7227 18.2187C15.7227 17.304 14.9817 16.5625 14.0676 16.5625C13.1536 16.5625 12.4126 17.304 12.4126 18.2187C12.4126 19.1334 13.1536 19.8749 14.0676 19.8749Z" fill="#4F008C"/>
</svg>
