<svg width="50" height="50" viewBox="0 0 50 50" fill="none" xmlns="http://www.w3.org/2000/svg">
<rect y="0.00012207" width="50" height="50" rx="20" fill="#EAEAEA"/>
<path d="M25 13C22.6266 13 20.3066 13.7038 18.3332 15.0224C16.3598 16.3409 14.8217 18.2151 13.9135 20.4078C13.0052 22.6005 12.7676 25.0133 13.2306 27.3411C13.6936 29.6689 14.8365 31.8071 16.5147 33.4853C18.193 35.1635 20.3312 36.3064 22.6589 36.7694C24.9867 37.2324 27.3995 36.9948 29.5922 36.0866C31.7849 35.1783 33.6591 33.6402 34.9776 31.6668C36.2962 29.6935 37 27.3734 37 25C36.9966 21.8185 35.7312 18.7682 33.4815 16.5185C31.2318 14.2688 28.1815 13.0034 25 13V13ZM28.222 20H21.778C22.6268 18.3243 23.7119 16.7792 25 15.412C26.2886 16.7788 27.3738 18.324 28.222 20ZM29.022 22C29.3294 22.9707 29.4898 23.9819 29.498 25C29.4898 26.0181 29.3294 27.0293 29.022 28H20.976C20.6687 27.0293 20.5082 26.0181 20.5 25C20.5082 23.9819 20.6687 22.9707 20.976 22H29.022ZM22.4 15.356C21.2477 16.7658 20.2966 18.3287 19.574 20H16.353C17.6789 17.7164 19.8517 16.0478 22.4 15.356ZM15 25C14.9999 23.9824 15.1554 22.9707 15.461 22H18.9C18.6408 22.9791 18.5064 23.9871 18.5 25C18.5064 26.0129 18.6408 27.0209 18.9 28H15.461C15.1554 27.0293 14.9999 26.0176 15 25ZM16.353 30H19.574C20.2966 31.6713 21.2477 33.2342 22.4 34.644C19.8517 33.9522 17.6789 32.2836 16.353 30ZM21.778 30H28.222C27.3732 31.6757 26.2882 33.2208 25 34.588C23.7114 33.2212 22.6262 31.676 21.778 30ZM27.605 34.644C28.7556 33.2339 29.705 31.671 30.426 30H33.647C32.3223 32.2825 30.1515 33.9511 27.605 34.644ZM35 25C35.0001 26.0176 34.8446 27.0293 34.539 28H31.1C31.3592 27.0209 31.4936 26.0129 31.5 25C31.4936 23.9871 31.3592 22.9791 31.1 22H34.537C34.8433 22.9706 34.9995 23.9823 35 25ZM30.426 20C29.705 18.329 28.7556 16.7661 27.605 15.356C30.1515 16.0489 32.3223 17.7175 33.647 20H30.426Z" fill="#4F008C"/>
</svg>
