<svg width="64" height="65" viewBox="0 0 64 65" fill="none" xmlns="http://www.w3.org/2000/svg">
<g opacity="0.7">
<path d="M31.9502 0.589996C49.6302 0.639996 63.8803 14.96 63.8203 32.58C63.7603 50.2 49.4103 64.48 31.8403 64.4C14.1903 64.32 -0.0697434 50.01 0.000256615 32.44C0.0702566 14.79 14.3703 0.529996 31.9403 0.579996L31.9502 0.589996ZM31.9202 59.95C47.0602 59.95 59.3303 47.7 59.3703 32.53C59.4103 17.38 47.0902 5.04 31.9202 5.04C16.7802 5.04 4.51025 17.29 4.47025 32.46C4.43025 47.6 16.7602 59.95 31.9202 59.95Z" fill="#FF0025"/>
<path d="M29.6904 27.97C29.6904 25.63 29.6904 23.28 29.6904 20.94C29.6904 19.41 30.5904 18.4 31.9304 18.41C33.2404 18.41 34.1404 19.42 34.1404 20.91C34.1404 25.67 34.1404 30.42 34.1404 35.18C34.1404 36.67 33.2504 37.67 31.9304 37.68C30.5904 37.68 29.6904 36.68 29.6904 35.15C29.6904 32.76 29.6904 30.37 29.6904 27.98V27.97Z" fill="#FF0025"/>
<path d="M34.8703 44.39C34.8703 46.03 33.5303 47.36 31.9103 47.35C30.2903 47.35 28.9603 46.01 28.9703 44.37C28.9703 42.73 30.3003 41.41 31.9303 41.42C33.5703 41.42 34.8803 42.75 34.8703 44.39Z" fill="#FF0025"/>
</g>
</svg>
