<svg width="14" height="13" viewBox="0 0 14 13" fill="none" xmlns="http://www.w3.org/2000/svg">
<path d="M5.122 3.6026L6.63263 2.09571L6.64404 9.47963C6.64404 9.92836 7.00884 10.2921 7.45884 10.2921C7.90883 10.2921 8.27363 9.92836 8.27363 9.47963L8.26222 2.10492L9.76417 3.60262C10.0768 3.92539 10.5926 3.93432 10.9163 3.62258C11.24 3.31084 11.2489 2.79648 10.9363 2.47372C10.9297 2.46694 10.9231 2.46029 10.9163 2.45376L9.17154 0.713936C8.21695 -0.237974 6.66925 -0.237974 5.71463 0.713911L3.96987 2.45374C3.65725 2.7765 3.66621 3.29086 3.98989 3.6026C4.30565 3.9067 4.80624 3.9067 5.122 3.6026Z" fill="#374957"/>
<path d="M13.1287 7.85424C12.6787 7.85424 12.3139 8.21801 12.3139 8.66673V11.1535C12.3136 11.2757 12.2143 11.3747 12.0917 11.375H2.75849C2.63592 11.3747 2.53661 11.2757 2.53633 11.1535V8.66673C2.53633 8.21801 2.17153 7.85424 1.72154 7.85424C1.27154 7.85424 0.906738 8.21801 0.906738 8.66673V11.1535C0.907935 12.1728 1.7363 12.9988 2.75849 13H12.0917C13.1139 12.9988 13.9423 12.1728 13.9435 11.1535V8.66673C13.9435 8.21801 13.5787 7.85424 13.1287 7.85424Z" fill="#374957"/>
</svg>
