<svg width="43" height="17" viewBox="0 0 43 17" fill="none" xmlns="http://www.w3.org/2000/svg">
<path d="M7.85691 2.19172C7.35295 2.76594 6.54661 3.21884 5.74026 3.15414C5.63947 2.37774 6.03424 1.55281 6.49621 1.04329C7.00017 0.452902 7.88211 0.0323501 8.59606 0C8.68005 0.808753 8.35248 1.60133 7.85691 2.19172ZM8.58766 3.3078C7.42014 3.2431 6.42061 3.94672 5.86625 3.94672C5.30349 3.94672 4.45515 3.34015 3.53122 3.35633C2.33011 3.3725 1.21299 4.02759 0.59983 5.07088C-0.66008 7.15747 0.272254 10.2469 1.49017 11.9453C2.08652 12.7864 2.80047 13.7084 3.74121 13.676C4.63154 13.6437 4.98432 13.118 6.05944 13.118C7.14296 13.118 7.45374 13.676 8.39447 13.6598C9.3688 13.6437 9.98196 12.8187 10.5783 11.9776C11.2587 11.0233 11.5358 10.0932 11.5526 10.0447C11.5358 10.0285 9.67118 9.3411 9.65438 7.27069C9.63758 5.53996 11.1243 4.71503 11.1915 4.66651C10.3515 3.46955 9.04123 3.34015 8.58766 3.3078ZM15.3324 0.962417V13.5709H17.365V9.26023H20.1788C22.749 9.26023 24.5549 7.56185 24.5549 5.10324C24.5549 2.64462 22.7826 0.962417 20.246 0.962417H15.3324ZM17.365 2.61227H19.7085C21.4723 2.61227 22.4803 3.51808 22.4803 5.11132C22.4803 6.70457 21.4723 7.61846 19.7001 7.61846H17.365V2.61227ZM28.2675 13.6679C29.5442 13.6679 30.7285 13.0452 31.266 12.0585H31.308V13.5709H33.1895V7.29496C33.1895 5.47526 31.6776 4.30257 29.351 4.30257C27.1923 4.30257 25.5964 5.49144 25.5376 7.12512H27.3687C27.5199 6.34872 28.2675 5.8392 29.2922 5.8392C30.5353 5.8392 31.2324 6.39724 31.2324 7.42436V8.11989L28.6958 8.26546C26.3356 8.40295 25.0589 9.33302 25.0589 10.9505C25.0589 12.5842 26.3776 13.6679 28.2675 13.6679ZM28.8134 12.1717C27.7299 12.1717 27.0411 11.6703 27.0411 10.902C27.0411 10.1094 27.7047 9.64843 28.973 9.57564L31.2324 9.43815V10.1499C31.2324 11.3306 30.1909 12.1717 28.8134 12.1717ZM35.7009 17C37.6832 17 38.6155 16.2721 39.4303 14.0642L43 4.42388H40.9337L38.5399 11.8725H38.4979L36.1041 4.42388H33.979L37.4228 13.6032L37.238 14.1613C36.9272 15.1075 36.4233 15.4715 35.5245 15.4715C35.3649 15.4715 35.0542 15.4553 34.9282 15.4391V16.9515C35.0458 16.9838 35.5497 17 35.7009 17Z" fill="black"/>
</svg>
