<svg width="14" height="13" viewBox="0 0 14 13" fill="none" xmlns="http://www.w3.org/2000/svg">
<path fill-rule="evenodd" clip-rule="evenodd" d="M4.88698 1.34483C3.53994 1.34483 2.31201 2.60163 2.31201 4.33266C2.31201 6.42694 3.17419 8.09803 4.25208 9.33543C5.33953 10.5838 6.61862 11.3569 7.3609 11.6408L7.36609 11.6428C7.36772 11.6433 7.37694 11.646 7.39477 11.6488C7.41857 11.6526 7.44864 11.6552 7.48174 11.6552C7.51484 11.6552 7.5449 11.6526 7.56871 11.6488C7.5874 11.6459 7.59663 11.643 7.59757 11.6428L7.60256 11.6408L7.60258 11.6408C8.34486 11.3569 9.62395 10.5838 10.7114 9.33543C11.7893 8.09803 12.6515 6.42694 12.6515 4.33266C12.6515 2.60163 11.4235 1.34483 10.0765 1.34483C9.27593 1.34483 8.52768 1.78059 8.04428 2.5099C7.91944 2.69824 7.70815 2.81154 7.48174 2.81154C7.25533 2.81154 7.04404 2.69824 6.9192 2.5099C6.43537 1.77995 5.69271 1.34483 4.88698 1.34483ZM0.963379 4.33266C0.963379 2.01712 2.64578 0 4.88698 0C5.89739 0 6.80119 0.419332 7.48211 1.08657C8.16466 0.419067 9.07095 0 10.0765 0C12.3177 0 14.0001 2.01712 14.0001 4.33266C14.0001 6.82188 12.9688 8.79467 11.7295 10.2173C10.5011 11.6275 9.04114 12.5302 8.08858 12.8953C7.8873 12.9741 7.66691 13 7.48174 13C7.29657 13 7.07618 12.9741 6.8749 12.8953C5.92234 12.5302 4.46236 11.6275 3.23394 10.2173C1.99466 8.79467 0.963379 6.82188 0.963379 4.33266Z" fill="#374957"/>
</svg>
