<?xml version="1.0" standalone="no"?>
<!DOCTYPE svg PUBLIC "-//W3C//DTD SVG 20010904//EN"
 "http://www.w3.org/TR/2001/REC-SVG-20010904/DTD/svg10.dtd">
<svg version="1.0" xmlns="http://www.w3.org/2000/svg"
 width="416.000000pt" height="416.000000pt" viewBox="0 0 416.000000 416.000000"
 preserveAspectRatio="xMidYMid meet">

<g transform="translate(0.000000,416.000000) scale(0.100000,-0.100000)"
fill="#E61313" stroke="none">
<path d="M1127 3504 c-249 -60 -475 -266 -584 -534 -140 -342 -90 -757 140
-1163 167 -295 472 -620 837 -891 177 -132 530 -356 561 -356 31 0 370 214
559 353 240 176 535 459 677 648 236 314 362 625 380 937 27 475 -250 899
-653 1002 -97 25 -260 27 -353 4 -84 -21 -191 -70 -272 -124 -86 -58 -212
-187 -281 -288 l-56 -84 -52 77 c-141 209 -345 364 -547 416 -91 23 -267 25
-356 3z"/>
</g>
</svg>
