<svg width="189" height="62" viewBox="0 0 189 62" fill="none" xmlns="http://www.w3.org/2000/svg">
<path d="M0.379688 60V3.2H12.2997V25.36H37.4197V3.2H49.3397V60H37.4197V35.92H12.2997V60H0.379688ZM79.0347 61.2C75.888 61.2 72.9814 60.6667 70.3147 59.6C67.7014 58.48 65.4347 56.9333 63.5147 54.96C61.5947 52.9333 60.1014 50.56 59.0347 47.84C57.968 45.0667 57.4347 42.0533 57.4347 38.8C57.4347 35.6533 57.968 32.72 59.0347 30C60.1014 27.28 61.568 24.9333 63.4347 22.96C65.3547 20.9333 67.5947 19.36 70.1547 18.24C72.7147 17.12 75.488 16.56 78.4747 16.56C81.568 16.56 84.368 17.0933 86.8747 18.16C89.4347 19.2267 91.6214 20.7467 93.4347 22.72C95.248 24.6933 96.6347 27.04 97.5947 29.76C98.608 32.48 99.1147 35.52 99.1147 38.88V41.68H68.7947C69.2747 44.8267 70.4214 47.3067 72.2347 49.12C74.048 50.88 76.3414 51.76 79.1147 51.76C81.0347 51.76 82.768 51.3067 84.3147 50.4C85.9147 49.4933 87.2214 48.1867 88.2347 46.48L98.2347 49.68C97.2747 52.08 95.8347 54.1333 93.9147 55.84C91.9947 57.5467 89.7547 58.88 87.1947 59.84C84.6347 60.7467 81.9147 61.2 79.0347 61.2ZM78.4747 25.2C76.0214 25.2 73.9414 26 72.2347 27.6C70.5814 29.2 69.488 31.3867 68.9547 34.16H87.5947C87.168 31.3867 86.128 29.2 84.4747 27.6C82.8747 26 80.8747 25.2 78.4747 25.2ZM106.066 60V0.319996H117.266V60H106.066ZM126.222 60V0.319996H137.422V60H126.222ZM166.698 61.2C163.552 61.2 160.645 60.64 157.978 59.52C155.312 58.4 152.992 56.8533 151.018 54.88C149.045 52.8533 147.498 50.48 146.378 47.76C145.312 45.04 144.778 42.08 144.778 38.88C144.778 35.68 145.338 32.7467 146.458 30.08C147.578 27.36 149.125 24.9867 151.098 22.96C153.125 20.9333 155.472 19.36 158.138 18.24C160.858 17.12 163.818 16.56 167.018 16.56C170.165 16.56 173.072 17.12 175.738 18.24C178.405 19.36 180.725 20.9333 182.698 22.96C184.672 24.9333 186.192 27.28 187.258 30C188.378 32.6667 188.938 35.6 188.938 38.8C188.938 42 188.378 44.96 187.258 47.68C186.138 50.4 184.565 52.7733 182.538 54.8C180.565 56.8267 178.218 58.4 175.498 59.52C172.832 60.64 169.898 61.2 166.698 61.2ZM166.858 51.12C168.885 51.12 170.698 50.5867 172.298 49.52C173.898 48.4533 175.152 47.0133 176.058 45.2C177.018 43.3333 177.498 41.2267 177.498 38.88C177.498 36.5333 177.018 34.4533 176.058 32.64C175.152 30.7733 173.898 29.3067 172.298 28.24C170.698 27.1733 168.885 26.64 166.858 26.64C164.832 26.64 163.018 27.1733 161.418 28.24C159.818 29.3067 158.538 30.7733 157.578 32.64C156.672 34.4533 156.218 36.5333 156.218 38.88C156.218 41.2267 156.672 43.3333 157.578 45.2C158.538 47.0133 159.818 48.4533 161.418 49.52C163.018 50.5867 164.832 51.12 166.858 51.12Z" fill="#262626"/>
</svg>
