<svg width="22" height="21" viewBox="0 0 22 21" fill="none" xmlns="http://www.w3.org/2000/svg">
<path d="M10.65 5.5182C10.47 5.5682 10.22 5.8382 10.17 6.0182C10.11 6.2282 10.11 10.9982 10.17 11.2182C10.21 11.3582 10.47 11.6282 11.87 13.0382C12.78 13.9482 13.59 14.7382 13.67 14.7782C14.01 14.9482 14.34 14.9082 14.6 14.6382C14.86 14.3782 14.91 14.0582 14.75 13.7282C14.72 13.6582 14.02 12.9382 13.2 12.1182L11.71 10.6282V8.3182L11.69 6.0082L11.59 5.8582C11.4 5.5582 10.99 5.4082 10.64 5.5182H10.65Z" fill="#A2A2A2"/>
<path d="M21.16 5.57819C21 4.78819 20.62 3.89819 20.15 3.18819C19.82 2.68819 19.72 2.55819 19.26 2.09819C18.28 1.10819 17.01 0.418191 15.67 0.148191C14.99 0.0081908 14.56 -0.0018092 10.83 0.0081908C6.88996 0.0281908 7.06996 0.0081908 6.22996 0.228191C5.33996 0.458191 4.42996 0.908191 3.66996 1.50819L3.41996 1.69819L3.39996 1.10819C3.37996 0.558191 3.36996 0.508191 3.26996 0.358191C3.20996 0.268191 3.09996 0.158191 3.01996 0.108191C2.85996 0.0081908 2.51996 -0.0318092 2.32996 0.0281908C2.14996 0.0881908 1.90996 0.328191 1.84996 0.528191C1.80996 0.648191 1.79996 1.15819 1.79996 2.36819C1.79996 4.18819 1.79996 4.20819 2.02996 4.44819C2.26996 4.69819 2.21996 4.69819 4.02996 4.70819C5.94996 4.72819 6.01996 4.70819 6.27996 4.45819C6.65996 4.06819 6.57996 3.46819 6.10996 3.21819C5.93996 3.12819 5.89996 3.12819 5.09996 3.12819C4.64996 3.12819 4.26996 3.10819 4.26996 3.08819C4.26996 3.08819 4.28996 3.06819 4.29996 3.04819C4.22996 3.05819 4.17996 3.06819 4.10996 3.08819C4.10996 3.04819 4.13996 2.95819 4.20996 2.86819C4.26996 2.78819 4.33996 2.75819 4.37996 2.73819L4.59996 2.56819C5.26996 2.04819 6.06996 1.64819 6.84996 1.44819C7.58996 1.25819 7.42996 1.26819 10.88 1.24819C14.15 1.23819 14.53 1.24819 15.13 1.35819C16.3 1.59819 17.42 2.19819 18.27 3.06819C18.67 3.47819 18.76 3.58819 19.05 4.02819C19.46 4.64819 19.79 5.42819 19.93 6.11819C20.07 6.77819 20.08 7.08819 20.06 10.4182C20.05 13.8582 20.05 13.7482 19.86 14.4782C19.5 15.8782 18.53 17.2282 17.28 18.0582C16.78 18.3982 16.04 18.7282 15.47 18.8682C14.72 19.0582 14.88 19.0482 11.43 19.0682C8.07996 19.0882 7.76996 19.0682 7.10996 18.9382C6.43996 18.7982 5.64996 18.4682 5.05996 18.0882C3.68996 17.1882 2.68996 15.7482 2.36996 14.1982C2.24996 13.5982 2.22996 13.1682 2.23996 11.5182V9.92819C2.23996 9.85819 2.15996 9.58819 1.93996 9.48819C1.85996 9.45819 1.77996 9.44819 1.67996 9.43819C1.55996 9.43819 1.45996 9.42819 1.34996 9.46819C1.19996 9.52819 1.12996 9.65819 1.08996 9.72819L0.979957 9.88819V11.6982C0.959957 13.5782 0.979957 14.0782 1.11996 14.7582C1.48996 16.5282 2.62996 18.1782 4.18996 19.1982C4.86996 19.6382 5.76996 20.0182 6.52996 20.1682C7.27996 20.3282 7.62996 20.3382 11.45 20.3182C15.39 20.2982 15.21 20.3182 16.06 20.0882C16.72 19.9182 17.55 19.5482 18.13 19.1582C19.56 18.2082 20.66 16.6782 21.07 15.0782C21.28 14.2482 21.28 14.3682 21.3 10.4482C21.32 6.64819 21.3 6.29819 21.15 5.54819L21.16 5.57819Z" fill="#A2A2A2"/>
</svg>
