<svg width="21" height="21" viewBox="0 0 21 21" fill="none" xmlns="http://www.w3.org/2000/svg">
<path d="M15.65 20.3482H10.17H4.69C2.1 20.3482 0 18.2382 0 15.6382V8.61821C0 7.99821 0.19 7.27821 0.53 6.58821C0.87 5.89821 1.33 5.30821 1.82 4.91821L6.91 0.938208C8.45 -0.251792 10.9 -0.311792 12.49 0.808208L18.34 4.90821C18.88 5.28821 19.39 5.88821 19.76 6.60821C20.14 7.32821 20.34 8.08821 20.34 8.74821V15.6482C20.34 18.2382 18.23 20.3482 15.64 20.3482H15.65ZM9.8 1.32821C9.04 1.32821 8.29 1.54821 7.72 1.98821L2.63 5.96821C2.3 6.22821 1.96 6.66821 1.71 7.17821C1.46 7.68821 1.32 8.21821 1.32 8.62821V15.6482C1.32 17.5182 2.83 19.0382 4.69 19.0382H15.64C17.5 19.0382 19.01 17.5182 19.01 15.6582V8.75821C19.01 8.30821 18.85 7.74821 18.58 7.22821C18.31 6.69821 17.94 6.25821 17.57 5.99821L11.73 1.88821C11.19 1.50821 10.5 1.31821 9.8 1.31821V1.32821ZM10.17 18.3682C9.02 18.3682 8.09 17.4282 8.09 16.2782V13.2282C8.09 12.0782 9.03 11.1382 10.17 11.1382C11.31 11.1382 12.25 12.0782 12.25 13.2282V16.2782C12.25 17.4282 11.32 18.3682 10.17 18.3682ZM10.17 12.4682C9.76 12.4682 9.41 12.8182 9.41 13.2282V16.2782C9.41 16.6982 9.75 17.0382 10.17 17.0382C10.59 17.0382 10.93 16.6982 10.93 16.2782V13.2282C10.93 12.8182 10.58 12.4682 10.17 12.4682Z" fill="#A2A2A2"/>
</svg>
