<svg width="20" height="20" viewBox="0 0 20 20" fill="none" xmlns="http://www.w3.org/2000/svg">
<path d="M18.7604 10.0002L19.8658 8.08998C20.1421 7.61042 19.9779 6.9987 19.5003 6.72237L17.588 5.61707V3.41448C17.588 2.86083 17.1405 2.4133 16.5868 2.4133H14.3851L13.2808 0.502056C13.1476 0.272786 12.9283 0.104588 12.673 0.0355071C12.4167 -0.0345754 12.1434 0.00246835 11.9131 0.135625L10.0008 1.24093L8.08844 0.134624C7.60886 -0.142703 6.99711 0.0224919 6.72078 0.501055L5.61543 2.4133H3.41375C2.86008 2.4133 2.41253 2.86083 2.41253 3.41448V5.61607L0.500204 6.72137C0.269923 6.85453 0.10272 7.07379 0.034637 7.33009C-0.0334459 7.58739 0.00259791 7.85971 0.134759 8.08998L1.2401 10.0002L0.134759 11.9105C0.0015967 12.1408 -0.034447 12.4141 0.0336359 12.6714C0.101719 12.9277 0.268922 13.1469 0.499203 13.2791L2.41153 14.3844V16.586C2.41153 17.1396 2.85908 17.5872 3.41275 17.5872H5.61543L6.72078 19.4994C6.85394 19.7287 7.07321 19.8959 7.32952 19.966C7.41462 19.988 7.50073 20 7.58783 20C7.76204 20 7.93526 19.9539 8.08944 19.8648L9.99977 18.7595L11.9121 19.8648C12.1414 19.998 12.4157 20.033 12.672 19.965C12.9283 19.8969 13.1476 19.7297 13.2798 19.4994L14.3841 17.5872H16.5858C17.1395 17.5872 17.587 17.1396 17.587 16.586V14.3844L19.4993 13.2791C19.9779 13.0018 20.1421 12.389 19.8648 11.9105L18.7604 10.0002ZM7.49672 4.98433C8.32573 4.98433 8.99855 5.65712 8.99855 6.4861C8.99855 7.31507 8.32573 7.98786 7.49672 7.98786C6.66771 7.98786 5.99489 7.31507 5.99489 6.4861C5.99489 5.65712 6.66771 4.98433 7.49672 4.98433ZM7.79709 14.5956L6.19514 13.3952L12.2025 5.3858L13.8044 6.58622L7.79709 14.5956ZM12.5028 14.9961C11.6738 14.9961 11.001 14.3233 11.001 13.4943C11.001 12.6654 11.6738 11.9926 12.5028 11.9926C13.3318 11.9926 14.0046 12.6654 14.0046 13.4943C14.0046 14.3233 13.3318 14.9961 12.5028 14.9961Z" fill="#15AF70"/>
</svg>
