<svg width="62" height="16" viewBox="0 0 62 16" fill="none" xmlns="http://www.w3.org/2000/svg">
<path d="M47.6551 3.3858H44.2236C43.9893 3.3858 43.7897 3.55637 43.753 3.78815L42.3654 12.586C42.3378 12.7596 42.4723 12.9161 42.6474 12.9161H44.4082C44.5718 12.9161 44.7118 12.7967 44.7373 12.6342L45.1311 10.1403C45.1673 9.90807 45.3674 9.7375 45.6017 9.7375H46.6873C48.9479 9.7375 50.2517 8.64385 50.5929 6.47662C50.7469 5.52845 50.5989 4.78347 50.1549 4.26173C49.6678 3.68881 48.8034 3.3858 47.6551 3.3858ZM48.0509 6.59903C47.8638 7.83013 46.9231 7.83013 46.0131 7.83013H45.4959L45.8596 5.53096C45.8812 5.392 46.0005 5.28966 46.1415 5.28966H46.3788C46.9979 5.28966 47.5828 5.28966 47.8848 5.64284C48.0649 5.85354 48.1196 6.16658 48.0509 6.59903Z" fill="#179BD7"/>
<path d="M57.9102 6.55944H56.2682C56.1273 6.55944 56.0074 6.66178 55.9863 6.80074L55.9136 7.26028L55.7982 7.09372C55.4425 6.5775 54.6498 6.40492 53.8582 6.40492C52.0426 6.40492 50.4925 7.78001 50.1905 9.70895C50.0339 10.6712 50.2562 11.5912 50.802 12.2329C51.3037 12.8228 52.0191 13.0687 52.8714 13.0687C54.3343 13.0687 55.1455 12.128 55.1455 12.128L55.0723 12.5845C55.0447 12.7591 55.1791 12.9157 55.3552 12.9157H56.8346C57.0689 12.9157 57.2686 12.7451 57.3052 12.5128L58.1937 6.88954C58.2208 6.71646 58.0863 6.55944 57.9102 6.55944ZM55.6201 9.75711C55.4626 10.6957 54.7166 11.3258 53.7664 11.3258C53.2903 11.3258 52.908 11.1728 52.6632 10.8829C52.4204 10.5949 52.3291 10.185 52.4053 9.72851C52.5543 8.79791 53.3109 8.14724 54.2465 8.14724C54.7131 8.14724 55.0923 8.30225 55.3422 8.59473C55.5935 8.89022 55.6928 9.30259 55.6201 9.75711Z" fill="#179BD7"/>
<path d="M59.8473 3.62712L58.4391 12.586C58.4115 12.7596 58.5459 12.9161 58.721 12.9161H60.1368C60.372 12.9161 60.5717 12.7456 60.6078 12.5133L61.9965 3.71592C62.0241 3.54234 61.8896 3.38531 61.7145 3.38531H60.1292C59.9893 3.38582 59.8689 3.48816 59.8473 3.62712Z" fill="#179BD7"/>
<path d="M23.1828 3.3858H19.7518C19.517 3.3858 19.3174 3.55637 19.2808 3.78815L17.8931 12.586C17.8655 12.7596 18 12.9161 18.1761 12.9161H19.814C20.0488 12.9161 20.2485 12.7455 20.2851 12.5133L20.6594 10.1403C20.6955 9.90807 20.8956 9.7375 21.1299 9.7375H22.2161C24.4761 9.7375 25.7804 8.64385 26.1211 6.47662C26.2746 5.52845 26.1276 4.78347 25.6836 4.26173C25.196 3.68881 24.3311 3.3858 23.1828 3.3858ZM23.5786 6.59903C23.391 7.83013 22.4503 7.83013 21.5408 7.83013H21.0231L21.3863 5.53096C21.4079 5.392 21.5283 5.28966 21.6687 5.28966H21.906C22.5256 5.28966 23.11 5.28966 23.412 5.64284C23.5921 5.85354 23.6473 6.16658 23.5786 6.59903Z" fill="#253B80"/>
<path d="M33.4386 6.55944H31.7956C31.6557 6.55944 31.5348 6.66178 31.5132 6.80074L31.4404 7.26028L31.3256 7.09372C30.9699 6.5775 30.1767 6.40492 29.3851 6.40492C27.5695 6.40492 26.0188 7.78001 25.7168 9.70895C25.5598 10.6712 25.7831 11.5912 26.3289 12.2329C26.8295 12.8228 27.5459 13.0687 28.3983 13.0687C29.8612 13.0687 30.6724 12.128 30.6724 12.128L30.5991 12.5845C30.5715 12.7591 30.706 12.9157 30.8811 12.9157H32.361C32.5963 12.9157 32.795 12.7451 32.8321 12.5128L33.72 6.88954C33.7481 6.71646 33.6142 6.55944 33.4386 6.55944ZM31.1485 9.75711C30.9899 10.6957 30.2449 11.3258 29.2948 11.3258C28.8177 11.3258 28.4364 11.1728 28.1916 10.8829C27.9488 10.5949 27.8565 10.185 27.9337 9.72851C28.0817 8.79791 28.8393 8.14724 29.7749 8.14724C30.2414 8.14724 30.6207 8.30225 30.8705 8.59473C31.1209 8.89022 31.2202 9.30259 31.1485 9.75711Z" fill="#253B80"/>
<path d="M42.1888 6.55937H40.5378C40.3803 6.55937 40.2323 6.63763 40.143 6.76857L37.8659 10.1228L36.9007 6.89951C36.84 6.69783 36.6538 6.55937 36.4431 6.55937H34.8207C34.6236 6.55937 34.4866 6.75202 34.5493 6.93763L36.3679 12.2744L34.6582 14.688C34.5237 14.8781 34.6592 15.1395 34.8914 15.1395H36.5405C36.697 15.1395 36.8435 15.0633 36.9323 14.9348L42.4236 7.00837C42.555 6.81874 42.4201 6.55937 42.1888 6.55937Z" fill="#253B80"/>
<path d="M3.64518 14.6258L3.90756 12.9593L3.32311 12.9457H0.532294L2.47177 0.648182C2.47779 0.611058 2.49735 0.576442 2.52595 0.55186C2.55454 0.527278 2.59116 0.513733 2.62929 0.513733H7.335C8.89721 0.513733 9.97531 0.838818 10.5382 1.48046C10.8021 1.78146 10.9701 2.09601 11.0514 2.44217C11.1367 2.80538 11.1382 3.23933 11.0549 3.76859L11.0489 3.80722V4.14636L11.3128 4.29585C11.535 4.41375 11.7116 4.5487 11.8471 4.70321C12.0728 4.96057 12.2188 5.28766 12.2805 5.67546C12.3442 6.07429 12.3231 6.54887 12.2188 7.08617C12.0984 7.70423 11.9037 8.24253 11.6409 8.68299C11.3991 9.08885 11.091 9.42547 10.7253 9.68634C10.3761 9.93417 9.96126 10.1223 9.49219 10.2427C9.03768 10.3611 8.51945 10.4208 7.95105 10.4208H7.58483C7.32296 10.4208 7.06861 10.5151 6.86894 10.6842C6.66877 10.8567 6.53633 11.0925 6.49569 11.3504L6.4681 11.5004L6.00456 14.4377L5.98348 14.5456C5.97797 14.5797 5.96843 14.5967 5.95439 14.6083C5.94185 14.6188 5.92379 14.6258 5.90623 14.6258H3.64518Z" fill="#253B80"/>
<path d="M11.5627 3.84633C11.5486 3.93613 11.5326 4.02794 11.5145 4.12225C10.8939 7.30838 8.77084 8.40905 6.05929 8.40905H4.67868C4.34708 8.40905 4.06765 8.64986 4.01597 8.97695L3.30911 13.4599L3.10895 14.7307C3.07533 14.9454 3.24089 15.139 3.45761 15.139H5.90628C6.19625 15.139 6.44257 14.9283 6.48822 14.6424L6.5123 14.5179L6.97334 11.5922L7.00294 11.4316C7.04809 11.1447 7.29492 10.934 7.58488 10.934H7.9511C10.3235 10.934 12.1807 9.97077 12.7235 7.18347C12.9503 6.01908 12.8329 5.04683 12.2329 4.36305C12.0513 4.15686 11.826 3.98579 11.5627 3.84633Z" fill="#179BD7"/>
<path d="M10.9134 3.58749C10.8185 3.5599 10.7207 3.53481 10.6204 3.51224C10.5195 3.49016 10.4162 3.4706 10.3098 3.45354C9.9376 3.39334 9.52974 3.36475 9.09278 3.36475H5.40448C5.31367 3.36475 5.22739 3.38531 5.15013 3.42244C4.98006 3.50421 4.85364 3.66525 4.82304 3.86241L4.03842 8.83199L4.01597 8.97695C4.06765 8.64986 4.34708 8.40905 4.67868 8.40905H6.05929C8.77084 8.40905 10.8939 7.30838 11.5145 4.12225C11.5326 4.02794 11.5486 3.93613 11.5627 3.84633C11.4056 3.76305 11.2354 3.69184 11.0523 3.63114C11.0072 3.61609 10.9605 3.60154 10.9134 3.58749Z" fill="#222D65"/>
<path d="M4.82304 3.86241C4.85364 3.66525 4.98006 3.50421 5.15013 3.42244C5.22739 3.38531 5.31367 3.36475 5.40448 3.36475H9.09278C9.52974 3.36475 9.9376 3.39334 10.3098 3.45354C10.4162 3.4706 10.5195 3.49016 10.6204 3.51224C10.7207 3.53481 10.8185 3.5599 10.9134 3.58749C10.9605 3.60154 11.0072 3.61609 11.0523 3.63114C11.2354 3.69184 11.4056 3.76305 11.5627 3.84633C11.7473 2.6689 11.5616 1.86723 10.925 1.14131C10.2231 0.342142 8.95638 0 7.33547 0H2.62977C2.29867 0 2.01622 0.240804 1.96505 0.568397L0.00501113 12.9924C-0.0336178 13.2382 0.156015 13.4599 0.403842 13.4599L3.30911 13.4599L4.03842 8.83199L4.82304 3.86241Z" fill="#253B80"/>
</svg>
