<svg width="40" height="40" viewBox="0 0 40 40" fill="none" xmlns="http://www.w3.org/2000/svg">
<path d="M40 20C40 31.0457 31.0457 40 20 40C8.9543 40 0 31.0457 0 20C0 8.9543 8.9543 0 20 0C31.0457 0 40 8.9543 40 20Z" fill="#F8EFFF"/>
<path fill-rule="evenodd" clip-rule="evenodd" d="M15.6201 22.4567C16.7916 22.0639 18.3533 21.9432 19.9754 21.9432C21.6071 21.9432 23.1691 22.0686 24.3389 22.4664C24.9264 22.6662 25.4514 22.9467 25.8339 23.3476C26.228 23.7606 26.45 24.2809 26.45 24.8995C26.45 25.5192 26.226 26.0391 25.8298 26.4505C25.4455 26.8495 24.9185 27.1273 24.3303 27.3246C23.159 27.7174 21.5975 27.8384 19.9754 27.8384C18.3437 27.8384 16.7815 27.7132 15.6116 27.3155C15.024 27.1157 14.4988 26.8353 14.1162 26.4344C13.7221 26.0213 13.5 25.5009 13.5 24.8821C13.5 24.2622 13.724 23.7422 14.1203 23.3308C14.5048 22.9317 15.0318 22.6539 15.6201 22.4567ZM14.8405 24.0246C14.62 24.2534 14.5 24.5262 14.5 24.8821C14.5 25.239 14.6198 25.5135 14.8397 25.744C15.0712 25.9866 15.4323 26.1983 15.9335 26.3687C16.9411 26.7112 18.3666 26.8384 19.9754 26.8384C21.5763 26.8384 23.0021 26.7153 24.0123 26.3765C24.5149 26.2079 24.8773 25.9979 25.1096 25.7567C25.33 25.5279 25.45 25.2552 25.45 24.8995C25.45 24.5428 25.3303 24.2683 25.1104 24.0379C24.879 23.7953 24.518 23.5836 24.0169 23.4132C23.0094 23.0705 21.5842 22.9432 19.9754 22.9432C18.3745 22.9432 16.9485 23.0661 15.938 23.4048C15.4353 23.5734 15.0728 23.7834 14.8405 24.0246Z" fill="#0601B4"/>
<path opacity="0.4" fill-rule="evenodd" clip-rule="evenodd" d="M15.645 15.8285C15.6455 13.4376 17.5844 11.5 19.9752 11.5C22.3664 11.5 24.3046 13.4381 24.3046 15.8294C24.3046 18.2205 22.3666 20.1595 19.9752 20.1595H19.9482L19.9465 20.1595C17.5634 20.1514 15.6374 18.2121 15.645 15.8285ZM15.645 15.8285C15.645 15.8282 15.645 15.828 15.645 15.8277L16.145 15.8294H15.645C15.645 15.8291 15.645 15.8288 15.645 15.8285ZM19.9752 12.5C18.1361 12.5 16.645 13.9906 16.645 15.8294V15.8311H16.645C16.6388 17.6627 18.1186 19.1529 19.9491 19.1595H19.9752C21.814 19.1595 23.3046 17.6684 23.3046 15.8294C23.3046 13.9904 21.8141 12.5 19.9752 12.5Z" fill="#0601B4"/>
</svg>
