<svg width="22" height="21" viewBox="0 0 22 21" fill="none" xmlns="http://www.w3.org/2000/svg">
<path d="M8.26997 0.00817871C5.82997 0.00817871 3.95998 0.488179 2.70998 1.73818C1.45998 2.98818 0.97998 4.85818 0.97998 7.29818V13.0082C0.97998 14.8582 1.25998 16.3782 1.92998 17.5482C2.61998 18.7382 3.67998 19.5082 5.10998 19.9182C6.01998 20.1882 7.07997 20.3082 8.26997 20.3082H13.98C15.18 20.3082 16.23 20.1882 17.14 19.9182C18.57 19.5182 19.63 18.7482 20.32 17.5482C20.99 16.3782 21.27 14.8582 21.27 13.0082V7.29818C21.27 4.85818 20.79 2.97818 19.54 1.73818C18.3 0.488179 16.43 0.00817871 13.99 0.00817871H8.27998H8.26997ZM8.26997 19.0582C7.39997 19.0582 6.63998 18.9882 5.98997 18.8582C6.44998 17.0282 8.48997 15.5182 11.13 15.5182C13.77 15.5182 15.81 17.0282 16.27 18.8582C15.62 18.9982 14.86 19.0582 13.99 19.0582H8.27998H8.26997ZM19.24 16.9282C18.84 17.6282 18.27 18.1382 17.46 18.4882C16.81 15.9982 14.13 14.2682 11.12 14.2682C8.10998 14.2682 5.43998 15.9982 4.77998 18.4882C3.97998 18.1382 3.39998 17.6282 2.99998 16.9282C2.47998 16.0282 2.21998 14.7582 2.21998 13.0182V7.30818C2.21998 4.98818 2.68998 3.52818 3.57998 2.62818C4.47998 1.72818 5.93998 1.26818 8.25998 1.26818H13.97C16.29 1.26818 17.75 1.73818 18.65 2.62818C19.55 3.52818 20.01 4.98818 20.01 7.30818V13.0182C20.01 14.7682 19.74 16.0382 19.23 16.9382L19.24 16.9282ZM8.33997 8.80818C8.33997 7.26818 9.57998 6.02818 11.12 6.02818C12.66 6.02818 13.9 7.26818 13.9 8.80818C13.9 10.3482 12.65 11.5982 11.12 11.5982C9.58998 11.5982 8.33997 10.3482 8.33997 8.80818ZM11.12 4.76818C8.88998 4.76818 7.07998 6.56818 7.07998 8.80818C7.07998 11.0482 8.87998 12.8582 11.12 12.8582C13.36 12.8582 15.16 11.0382 15.16 8.80818C15.16 6.57818 13.36 4.76818 11.12 4.76818Z" fill="#A2A2A2"/>
</svg>
