<svg width="20" height="20" viewBox="0 0 20 20" fill="none" xmlns="http://www.w3.org/2000/svg">
<path d="M19.6351 17.872L15.7649 14.0018C18.6635 10.1318 17.8753 4.64534 14.0046 1.74741C10.1339 -1.15051 4.64632 -0.362613 1.74777 3.50733C-1.15078 7.37726 -0.362645 12.8637 3.50808 15.7617C6.61791 18.0899 10.8904 18.0909 14.0013 15.7641L17.8731 19.6352C18.3597 20.1216 19.1485 20.1216 19.6351 19.6352C20.1216 19.1487 20.1216 18.36 19.6351 17.8736V17.872ZM8.79014 15.017C5.3508 15.017 2.56267 12.2295 2.56267 8.79081C2.56267 5.35217 5.35084 2.56461 8.79014 2.56461C12.2294 2.56461 15.0176 5.35217 15.0176 8.79081C15.014 12.2279 12.228 15.0134 8.79014 15.017Z" fill="#6D6D6D"/>
</svg>
