<svg width="41" height="13" viewBox="0 0 41 13" fill="none" xmlns="http://www.w3.org/2000/svg">
<path d="M20.3005 0.229623L17.5614 12.8026H14.2482L16.9876 0.229623H20.3005ZM34.2388 8.34815L35.9825 3.62674L36.986 8.34815H34.2388ZM37.9365 12.8026H41L38.3236 0.229623H35.4978C34.861 0.229623 34.3241 0.592156 34.0864 1.15123L29.1154 12.8026H32.5947L33.2854 10.9249H37.5353L37.9365 12.8026ZM29.2879 8.69796C29.3023 5.37974 24.6158 5.19593 24.6472 3.71328C24.6573 3.2628 25.0951 2.78291 26.0519 2.66018C26.5263 2.60023 27.8354 2.55159 29.3193 3.22292L29.8997 0.555676C29.1027 0.272607 28.077 0 26.8008 0C23.5256 0 21.2217 1.70803 21.2032 4.15584C21.1822 5.96596 22.849 6.97522 24.1022 7.57812C25.3943 8.19432 25.8272 8.58937 25.8209 9.13996C25.812 9.98351 24.7906 10.3571 23.8395 10.3712C22.173 10.3967 21.207 9.92893 20.4371 9.57658L19.8357 12.3329C20.611 12.6813 22.0397 12.9844 23.519 13C27.0009 13 29.2775 11.312 29.2879 8.69796ZM15.5665 0.229623L10.1985 12.8026H6.69695L4.05515 2.76848C3.89501 2.15144 3.75532 1.92465 3.26826 1.66392C2.47157 1.23917 1.15643 0.841857 0 0.594701L0.0783447 0.229623H5.71564C6.43369 0.229623 7.07974 0.698766 7.24421 1.51093L8.6397 8.78704L12.086 0.229623H15.5665Z" fill="#1434CB"/>
</svg>
