<svg width="15" height="15" viewBox="0 0 15 15" fill="none" xmlns="http://www.w3.org/2000/svg">
<path d="M13.8012 2.86801L13.8019 2.86884C13.9308 3.02303 14.0244 3.20373 14.0758 3.39815C14.1272 3.59258 14.1353 3.79595 14.0994 3.99384L14.0993 3.99436L13.609 6.71554L13.609 6.71555C13.4999 7.32131 13.1816 7.86937 12.7097 8.26401C12.2379 8.65864 11.6425 8.87479 11.0277 8.87475H11.0277H3.58305H2.8761L3.1116 9.54131C3.2748 10.0032 3.5768 10.4034 3.97626 10.6869C4.37572 10.9704 4.85307 11.1233 5.34287 11.1247H5.34428H11.8665C11.8994 11.1247 11.931 11.1378 11.9544 11.1612C11.9778 11.1846 11.991 11.2164 11.991 11.2497C11.991 11.283 11.9778 11.3148 11.9544 11.3382L12.3081 11.6916L11.9544 11.3382C11.931 11.3616 11.8994 11.3747 11.8665 11.3747H5.34428C4.70172 11.3747 4.08147 11.1386 3.60127 10.7112C3.12105 10.2838 2.81431 9.69476 2.73935 9.05587L2.73934 9.05577L1.87996 1.74347L1.87995 1.74337C1.84774 1.46981 1.71632 1.21752 1.51051 1.03438C1.3047 0.851237 1.03881 0.750003 0.763266 0.749967H0.763201H0.62455C0.591629 0.749967 0.559987 0.736883 0.536603 0.713482L0.216299 1.03356L0.536602 0.713482C0.513206 0.69007 0.5 0.658243 0.5 0.624983C0.5 0.591724 0.513206 0.559897 0.536602 0.536484C0.559987 0.513084 0.591629 0.5 0.62455 0.5H0.763085C0.763123 0.5 0.763162 0.5 0.763201 0.5C1.09939 0.500214 1.42388 0.623828 1.67517 0.847508C1.92652 1.07125 2.08716 1.37957 2.12654 1.71404L2.12665 1.71495L2.15288 1.93431L2.20557 2.37495H2.64934L12.7471 2.37495L12.7477 2.37495C12.9486 2.3747 13.1472 2.41874 13.3293 2.50394C13.5114 2.58915 13.6725 2.71344 13.8012 2.86801Z" stroke="white"/>
<path d="M5.121 13.75C5.121 14.1646 4.78529 14.5 4.3719 14.5C3.95851 14.5 3.6228 14.1646 3.6228 13.75C3.6228 13.3355 3.95851 13.0001 4.3719 13.0001C4.78529 13.0001 5.121 13.3355 5.121 13.75Z" stroke="white"/>
<path d="M11.3664 13.75C11.3664 14.1646 11.0307 14.5 10.6173 14.5C10.2039 14.5 9.86816 14.1646 9.86816 13.75C9.86816 13.3355 10.2039 13.0001 10.6173 13.0001C11.0307 13.0001 11.3664 13.3355 11.3664 13.75Z" stroke="white"/>
</svg>
