<svg width="21" height="21" viewBox="0 0 21 21" fill="none" xmlns="http://www.w3.org/2000/svg">
<path d="M9.76001 18.9382C8.46001 18.4382 6.30001 17.1282 4.47001 15.0382C2.65001 12.9582 1.20001 10.1482 1.20001 6.64818C1.20001 3.73818 3.30001 1.35818 5.92001 1.35818C7.47001 1.35818 8.84001 2.19818 9.69001 3.47818C9.80001 3.64818 9.97001 3.74818 10.16 3.74818C10.35 3.74818 10.52 3.64818 10.63 3.47818C11.49 2.18818 12.86 1.35818 14.4 1.35818C17.02 1.35818 19.12 3.73818 19.12 6.64818C19.12 10.1482 17.67 12.9582 15.85 15.0382C14.02 17.1282 11.86 18.4382 10.56 18.9382C10.48 18.9682 10.33 18.9982 10.16 18.9982C9.99001 18.9982 9.84001 18.9682 9.76001 18.9382ZM5.91001 0.00817871C2.67001 0.00817871 0.0100098 2.96818 0.0100098 6.64818C0.0100098 10.6182 1.66001 13.7482 3.63001 15.9982C5.59001 18.2382 7.91001 19.6582 9.38001 20.2182C9.62001 20.3182 9.91001 20.3482 10.16 20.3482C10.41 20.3482 10.7 20.3082 10.94 20.2182C12.41 19.6582 14.73 18.2382 16.69 15.9982C18.66 13.7482 20.31 10.6182 20.31 6.64818C20.31 2.96818 17.65 0.00817871 14.4 0.00817871C12.74 0.00817871 11.23 0.788179 10.16 2.03818C9.09001 0.788179 7.58001 0.00817871 5.91001 0.00817871Z" fill="#A2A2A2"/>
</svg>
